<svg width="750" height="750" fill="none" xmlns="http://www.w3.org/2000/svg"><g clip-path="url(#a)"><path d="M750 375.001c0 207.105-167.895 374.998-375 374.998-207.107 0-375-167.893-375-374.998 0-207.108 167.893-375 375-375 207.105 0 375 167.892 375 375Z" fill="#1B817F"/><path fill-rule="evenodd" clip-rule="evenodd" d="M732.646 261.976c2.049 12.145 4.082 21.812 6.063 31.227l.044.209.018.084c3.478 16.487 6.768 32.08 9.441 57.944 4.056 39.387 2.138 94.949-30.017 136.063-20.626 26.389-52.106 40.82-88.854 40.82-.897 0-1.778 0-2.693-.019-18.447-.35-36.958-4.379-54.511-11.517-2.51 9.319-5.573 18.784-9.575 28.466-25.805 62.448-57.355 98.606-142.206 98.606-93.755 0-143.809-85.126-154.579-142.324-2.576-13.679-4.57-31.589-6.678-50.54l-.037-.327c-3.348-29.979-7.145-63.964-13.879-85.263-12.373-39.145-44.72-49.59-82.157-61.653-5.301-1.711-10.645-3.44-15.991-5.269-5.632 14.289-9.125 29.293-9.036 45.674.054 8.061.606 16.138 1.158 24.215v.001c.967 13.981 1.95 28.444.361 42.908-5.678 51.607-43.029 107.944-103.403 115.781-1.274.166-2.553.314-3.835.446a372.85 372.85 0 0 1-5.897-13.998c2.637-.194 5.261-.463 7.866-.809 52.988-6.87 85.818-57.01 90.876-103.007 1.465-13.186.568-26.373-.399-40.338l-.009-.129c-.565-8.328-1.13-16.656-1.181-24.984-.103-18.274 3.789-34.984 9.973-50.723-11.21-4.364-22.255-9.462-32.686-16.228l-2.729-1.71c-27.973-17.077-47.072-40.815-57.2-70.977a374.043 374.043 0 0 1 9.88-18.079c11.063 49.956 42.256 69.02 54.829 76.705l.017.01 3.073 1.918c9.607 6.235 20.038 11.005 30.72 15.125 11.775-23.938 28.466-45.733 45.033-67.045l.157-.202c5.574-7.164 11.149-14.329 16.498-21.563 21.318-28.738 31.933-54.971 31.569-77.981-.067-4.005 3.124-7.282 7.113-7.352h.119a7.23 7.23 0 0 1 7.234 7.113c.412 26.268-11.169 55.491-34.399 86.852-4.959 6.692-10.101 13.314-15.259 19.957l-1.604 2.067c-16.287 20.94-31.903 41.302-42.868 63.097 4.827 1.637 9.664 3.205 14.455 4.751 37.802 12.184 76.877 24.803 91.531 71.077 7.146 22.627 11.029 57.355 14.447 88.008 2.088 18.797 4.073 36.576 6.559 49.795 9.873 52.471 55.404 130.538 140.358 130.538 69.488 0 100.782-21.781 128.847-89.664 4.089-9.898 7.226-19.629 9.683-29.22-23.874-12.228-45.394-30.147-61.584-52.558-50.314-69.629-52.765-118.941-52.781-200.113 0-74.719-24.873-120.579-73.943-136.321-3.795-1.226-5.902-5.298-4.676-9.096 1.225-3.797 5.212-5.955 9.095-4.678 54.939 17.622 83.987 69.523 83.987 150.095.019 78.188 2.349 125.634 50.056 191.653 14.1 19.527 32.538 35.447 53.059 46.584 4.659-24.434 5.416-48.001 6.125-71.058 1.295-42.044 2.537-81.779 26.287-122.564 23.141-39.735 70.304-57.317 119.533-67.301-1.251-9.131-2.318-17.852-2.934-26.571a372.615 372.615 0 0 1 21.536 53.392Zm-7.973 34.772-.074-.349c-2.771-13.149-5.642-26.799-8.532-46.856-45.714 9.375-88.819 25.438-109.059 60.199-21.901 37.619-23.076 75.55-24.32 115.705l-.001.022c-.773 24.852-1.662 50.293-7.159 76.992 16.526 7 33.985 11.048 51.397 11.38 33.691.759 61.618-11.891 79.879-35.245 29.188-37.317 30.793-88.94 27.012-125.672-2.57-24.966-5.771-40.166-9.143-56.176Z" fill="#fff"/></g><defs><clipPath id="a"><path fill="#fff" d="M0 0h750v750H0z"/></clipPath></defs></svg>